<?xml version="1.0" encoding="UTF-8"?><svg id="b" xmlns="http://www.w3.org/2000/svg" xmlns:xlink="http://www.w3.org/1999/xlink" viewBox="0 0 1523.72 419.53"><defs><clipPath id="d"><rect width="1523.72" height="419.53" fill="none"/></clipPath></defs><g id="c"><g clip-path="url(#d)"><path d="M307.55,328l-28.91,39.85-51.55-37.44c-5.06-3.68-11.16-5.67-17.41-5.68H79.52c-10.45-.01-20.47-4.17-27.86-11.56l-40.09-40.02c-3.67-3.67-6.58-8.02-8.56-12.81C1.02,255.53,0,250.39,0,245.21V83h48.76v145.07c.02,7.84,3.14,15.35,8.67,20.9l18.29,18.29c5.55,5.54,13.06,8.65,20.9,8.67h133.02c4.17,0,8.23,1.33,11.6,3.8l66.32,48.27Z" fill="#ec671a"/><path d="M307.55,79.52v162.2h-48.76V96.66c-.02-7.84-3.14-15.35-8.67-20.9l-18.29-18.29c-5.55-5.54-13.06-8.65-20.9-8.67H71.61V0h156.42c10.45.01,20.47,4.17,27.86,11.56l40.16,40.02c3.66,3.67,6.55,8.03,8.53,12.82,1.97,4.79,2.98,9.93,2.97,15.11" fill="#ec671a"/><path d="M344.54,61.93c14.25-.24,29.05,0,43.36,0v105.54c0,49.42-8.05,117.1,62.31,118.7,44.44,1.32,76.63-30.97,78.4-75.02.56-15.74,0-31.8,0-47.58V61.93c14.18-.28,28.91,0,43.12,0v263.25h-42.08v-36.19c-37.16,46.12-113.62,52.24-156.18,11.46-34.55-33.16-29.08-90.25-29.08-133.68l.14-104.84Z" fill="#c2c1b4"/><path d="M1201.85,61.3c6.1-1.08,41.03-.38,48.76-.31.18,13.93,0,28.14,0,41.8h-28.67c-24.02,0-42.69.94-60.87,19.09-27.38,27.51-22.11,69.69-22.11,105.05v98.12h-43.61v-3.21c-.54-30.89,0-63.22,0-94.25V61.9c13.92-.14,27.86-.14,41.79,0,0,10.76,0,23.27-.2,34.03,19.12-22.15,35.17-31.69,64.79-34.66l.13.03Z" fill="#c2c1b4"/><path d="M1006.61,61.3c6.75-1.04,39.63-.38,48.76-.31v42.01c-29.99,0-65.89-4.88-89.05,18.43-27.86,28.21-22.78,69.66-22.75,106.51v97.14h-43.54V61.9c13.94-.24,28.08-.21,42.12,0v33.58c19.15-22.33,35.55-31.35,64.7-34.27l-.23.1Z" fill="#c2c1b4"/></g><polygon points="1477.84 61.83 1406.03 275.34 1332.25 61.89 1286.37 61.89 1384.7 325.32 1353.36 416.12 1396.02 416.12 1523.72 61.83 1477.84 61.83" fill="#c2c1b4"/><path d="M726.49,57.16c2.58,0,5.15,0,7.7.17,35.56,1.81,59.7,15.6,83.04,41.38v-37.23h41.79l-.62,263.73h-41.8s.63-68.41,0-100c-.35-16.4.35-36.33-1.85-52.49-1.26-9.78-3.9-19.34-7.84-28.39-18.84-42.39-65.03-56.95-107.38-39.85-21.24,8.67-34.83,27.65-42.67,48.76-16.3,56.49,2.47,126.88,71.33,131.31,30.41,1.95,46.26-7.66,67.95-26.61-.28,15.12,0,31.35,0,46.57-17.48,12.49-38.15,19.74-59.6,20.9-74.57,4.49-125.67-51.65-129.08-123.85-3.52-77.46,37.96-139.95,119.02-144.41" fill="#c2c1b4"/><path d="M1285.65,417.32c3.36-1.47,5.94-3.54,7.74-6.2,1.8-2.66,2.7-5.77,2.7-9.32,0-2.34-.41-4.41-1.22-6.2-.82-1.79-1.99-3.36-3.54-4.7-1.54-1.34-3.38-2.49-5.53-3.44-2.15-.95-4.55-1.72-7.21-2.33l-5.77-1.38c-2.13-.5-3.98-1.09-5.53-1.78-1.55-.69-2.76-1.53-3.61-2.53-.86-1-1.28-2.24-1.28-3.71,0-1.55.45-2.93,1.36-4.13.91-1.2,2.19-2.14,3.83-2.82,1.65-.68,3.56-1.03,5.75-1.03,3.35,0,6.04.8,8.1,2.39,2.06,1.59,3.19,3.81,3.4,6.66h10.07c-.11-3.61-1.05-6.76-2.82-9.46-1.78-2.7-4.25-4.79-7.43-6.26-3.17-1.47-6.91-2.21-11.2-2.21s-7.99.72-11.24,2.17c-3.25,1.45-5.79,3.48-7.62,6.1-1.83,2.62-2.75,5.67-2.75,9.15,0,4.16,1.39,7.54,4.17,10.15,2.78,2.61,6.89,4.56,12.34,5.85l6.48,1.58c2.4.55,4.39,1.2,5.98,1.94,1.59.74,2.79,1.61,3.59,2.63.8,1.01,1.2,2.25,1.2,3.69,0,1.71-.51,3.21-1.52,4.48-1.01,1.28-2.42,2.27-4.21,2.96-1.79.7-3.88,1.05-6.28,1.05s-4.7-.4-6.6-1.2c-1.9-.8-3.38-1.97-4.46-3.52-1.08-1.54-1.66-3.43-1.74-5.67h-10.31c.08,4.06,1.05,7.52,2.92,10.41,1.87,2.88,4.52,5.09,7.94,6.62,3.42,1.53,7.51,2.29,12.25,2.29s8.67-.74,12.03-2.21M1187.98,368.69v49.89h10.51v-49.89h18.21v-8.97h-46.97v8.97h18.25ZM1120.7,417.93c2.87-1.01,5.4-2.45,7.6-4.31,2.2-1.86,4-4.05,5.39-6.58s2.32-5.31,2.77-8.34h-10.63c-.37,1.79-.99,3.39-1.86,4.8-.87,1.41-1.93,2.6-3.18,3.57-1.25.98-2.67,1.71-4.25,2.21-1.58.5-3.28.75-5.1.75-3.42,0-6.41-.84-8.95-2.51-2.54-1.67-4.51-4.06-5.91-7.17-1.4-3.11-2.09-6.83-2.09-11.18s.7-8.08,2.09-11.2c1.4-3.12,3.36-5.52,5.91-7.21,2.54-1.69,5.52-2.53,8.95-2.53,1.82,0,3.52.25,5.11.75,1.59.5,3.02,1.24,4.27,2.21,1.25.97,2.3,2.17,3.16,3.58s1.47,3.02,1.84,4.84h10.59c-.47-3.21-1.43-6.1-2.86-8.67-1.44-2.57-3.26-4.75-5.47-6.56-2.21-1.8-4.74-3.18-7.58-4.13-2.84-.95-5.9-1.42-9.17-1.42-5.29,0-10,1.22-14.12,3.67-4.12,2.45-7.36,5.94-9.72,10.49-2.36,4.54-3.54,9.94-3.54,16.18s1.18,11.59,3.54,16.12c2.36,4.53,5.59,8.02,9.72,10.47,4.12,2.45,8.83,3.67,14.12,3.67,3.37,0,6.49-.51,9.36-1.52M1048.98,418.58v-8.97h-29.31v-16.43h27.06v-8.81h-27.06v-15.68h29.23v-8.97h-39.74v58.86h39.82ZM944.31,368.69v49.89h10.51v-49.89h18.21v-8.97h-46.97v8.97h18.25ZM879.44,418.58h10.51v-58.86h-10.51v58.86ZM801.02,418.58v-25.6h27.26v25.6h10.51v-58.86h-10.51v24.29h-27.26v-24.29h-10.51v58.86h10.51ZM736.86,417.93c2.87-1.01,5.4-2.45,7.6-4.31,2.2-1.86,4-4.05,5.39-6.58,1.39-2.53,2.32-5.31,2.77-8.34h-10.63c-.37,1.79-.99,3.39-1.86,4.8-.87,1.41-1.93,2.6-3.18,3.57-1.25.98-2.67,1.71-4.25,2.21s-3.28.75-5.1.75c-3.42,0-6.41-.84-8.95-2.51-2.54-1.67-4.51-4.06-5.9-7.17-1.4-3.11-2.09-6.83-2.09-11.18s.7-8.08,2.09-11.2c1.39-3.12,3.36-5.52,5.9-7.21,2.54-1.69,5.52-2.53,8.95-2.53,1.82,0,3.52.25,5.12.75,1.59.5,3.02,1.24,4.27,2.21,1.25.97,2.3,2.17,3.16,3.58.85,1.41,1.47,3.02,1.84,4.84h10.59c-.47-3.21-1.43-6.1-2.86-8.67-1.44-2.57-3.26-4.75-5.47-6.56-2.21-1.8-4.74-3.18-7.58-4.13-2.84-.95-5.9-1.42-9.16-1.42-5.29,0-10,1.22-14.12,3.67-4.12,2.45-7.36,5.94-9.72,10.49s-3.54,9.94-3.54,16.18,1.18,11.59,3.54,16.12,5.6,8.02,9.72,10.47c4.12,2.45,8.83,3.67,14.12,3.67,3.37,0,6.49-.51,9.36-1.52M666.25,418.58l-14.22-26.63h-11.38l13.98,26.63h11.61ZM631.72,418.58v-50.01h11.02c2.5,0,4.6.4,6.28,1.21,1.68.8,2.96,1.95,3.83,3.44.87,1.49,1.3,3.27,1.3,5.35s-.43,3.78-1.3,5.25c-.87,1.48-2.15,2.61-3.83,3.4-1.68.79-3.77,1.18-6.24,1.18h-15.41v8.69h15.96c4.45,0,8.26-.76,11.44-2.27,3.17-1.51,5.62-3.66,7.33-6.44,1.71-2.78,2.57-6.05,2.57-9.82s-.82-7.14-2.47-9.95c-1.65-2.82-4.03-5-7.15-6.56-3.12-1.55-6.88-2.33-11.28-2.33h-22.56v58.86h10.51ZM573.43,395.75h-30.54v8.53h30.54v-8.53ZM542.02,418.58l10.39-30.77c1-3.19,2.06-6.69,3.18-10.51,1.12-3.82,2.38-8.27,3.77-13.35h-2.61c1.4,5.06,2.66,9.49,3.79,13.31s2.21,7.33,3.24,10.55l10.35,30.77h11.54l-20.98-58.86h-13.23l-20.82,58.86h11.38Z" fill="#c2c1b4"/></g></svg>