<svg width="940" height="300" viewBox="0 0 940 300" fill="none" xmlns="http://www.w3.org/2000/svg">
<rect width="940" height="300" fill="#2D2D27"/>
<path d="M33.3406 61V58.1189H40.8948C42.3236 58.1189 43.4363 57.7324 44.2327 56.9594C45.0525 56.1864 45.4624 55.1323 45.4624 53.7972C45.4624 52.3918 45.0291 51.2674 44.1624 50.4242C43.3192 49.5809 42.1597 49.1593 40.684 49.1593H33.3406V46.3484H40.3326C41.7615 46.3484 42.8624 46.0088 43.6354 45.3295C44.4318 44.6268 44.83 43.6313 44.83 42.343C44.83 41.1249 44.4552 40.1997 43.7056 39.5672C42.9795 38.9114 41.902 38.5834 40.4732 38.5834H33.3406V35.7023H41.0353C43.3309 35.7023 45.1579 36.2645 46.5165 37.3888C47.8751 38.4897 48.5544 40.0006 48.5544 41.9213C48.5544 43.1394 48.2733 44.2169 47.7111 45.1538C47.1724 46.0673 46.4228 46.7818 45.4624 47.2971C44.5021 47.789 43.4129 48.0349 42.1948 48.0349L42.3705 47.2971C43.6822 47.2971 44.8534 47.6016 45.8841 48.2106C46.9147 48.7962 47.7345 49.6043 48.3436 50.635C48.9526 51.6656 49.2571 52.8602 49.2571 54.2188C49.2571 55.554 48.9292 56.7369 48.2733 57.7675C47.6408 58.7982 46.739 59.5946 45.5678 60.1567C44.3966 60.7189 43.0381 61 41.4921 61H33.3406ZM30.6 61V35.7023H34.3244V61H30.6ZM58.3792 61.3514C57.1846 61.3514 56.1305 61.1054 55.217 60.6135C54.3034 60.0982 53.589 59.3955 53.0737 58.5054C52.5818 57.6153 52.3358 56.5963 52.3358 55.4486V43.0808H55.99V54.6053C55.99 55.8468 56.2945 56.772 56.9035 57.381C57.5125 57.99 58.3792 58.2946 59.5035 58.2946C60.5107 58.2946 61.4009 58.0603 62.1738 57.5918C62.9702 57.1234 63.591 56.4792 64.036 55.6594C64.5045 54.8161 64.7387 53.844 64.7387 52.7431L65.1955 57.0297C64.6099 58.3414 63.7081 59.3955 62.4901 60.1919C61.2954 60.9649 59.9252 61.3514 58.3792 61.3514ZM64.8793 61V56.7837H64.7387V43.0808H68.3577V61H64.8793ZM72.6069 61V43.0808H76.261V61H72.6069ZM72.4313 39.5672V35.4564H76.4719V39.5672H72.4313ZM80.8638 61V35.7023H84.5179V61H80.8638ZM102.051 61V56.8891L102.402 56.9945C102.027 58.3297 101.254 59.3955 100.083 60.1919C98.9118 60.9649 97.5064 61.3514 95.8668 61.3514C94.2505 61.3514 92.8334 60.9649 91.6153 60.1919C90.4207 59.4189 89.4838 58.3414 88.8045 56.9594C88.1486 55.5774 87.8207 53.9612 87.8207 52.1107C87.8207 50.2368 88.1603 48.5971 88.8396 47.1917C89.5189 45.7863 90.4676 44.697 91.6856 43.9241C92.9036 43.1511 94.3325 42.7646 95.9722 42.7646C97.6821 42.7646 99.0875 43.1745 100.188 43.9943C101.313 44.7907 102.051 45.9151 102.402 47.3674L101.91 47.4376V35.7023H105.529V61H102.051ZM96.7803 58.2946C98.3965 58.2946 99.6731 57.7441 100.61 56.6432C101.547 55.5188 102.016 53.9729 102.016 52.0053C102.016 50.0845 101.535 48.5737 100.575 47.4728C99.638 46.3484 98.3614 45.7863 96.7451 45.7863C95.1523 45.7863 93.8874 46.3484 92.9505 47.4728C92.037 48.5737 91.5802 50.1197 91.5802 52.1107C91.5802 54.0548 92.037 55.5774 92.9505 56.6783C93.8874 57.7558 95.164 58.2946 96.7803 58.2946ZM110.142 61V43.0808H113.796V61H110.142ZM109.966 39.5672V35.4564H114.007V39.5672H109.966ZM118.399 61V43.0808H121.877V47.2971H122.053V61H118.399ZM131.118 61V49.4755C131.118 48.234 130.802 47.3088 130.169 46.6998C129.56 46.0908 128.647 45.7863 127.428 45.7863C126.374 45.7863 125.437 46.0205 124.618 46.489C123.821 46.9574 123.189 47.6016 122.72 48.4214C122.275 49.2413 122.053 50.2133 122.053 51.3377L121.596 47.0511C122.182 45.716 123.083 44.6619 124.301 43.8889C125.519 43.1159 126.937 42.7294 128.553 42.7294C130.474 42.7294 131.984 43.2682 133.085 44.3457C134.186 45.4232 134.737 46.852 134.737 48.6322V61H131.118ZM146.664 68.5542C144.415 68.5542 142.553 68.0388 141.078 67.0082C139.625 66.001 138.747 64.6541 138.442 62.9676H141.886C142.12 63.7406 142.635 64.3496 143.432 64.7947C144.252 65.2397 145.341 65.4622 146.699 65.4622C148.456 65.4622 149.768 65.0289 150.634 64.1622C151.501 63.2955 151.935 62.0072 151.935 60.2973V56.4324L152.251 56.5026C151.899 57.8612 151.138 58.9387 149.967 59.7351C148.796 60.5081 147.39 60.8946 145.751 60.8946C144.181 60.8946 142.799 60.5198 141.605 59.7703C140.41 59.0207 139.485 57.9783 138.829 56.6432C138.173 55.2846 137.845 53.7035 137.845 51.8999C137.845 50.0728 138.185 48.4683 138.864 47.0863C139.543 45.7043 140.492 44.6385 141.71 43.8889C142.951 43.1394 144.392 42.7646 146.032 42.7646C147.718 42.7646 149.112 43.1745 150.213 43.9943C151.337 44.7907 152.052 45.9268 152.356 47.4025L152.075 47.4376V43.0808H155.553V60.2622C155.553 62.8388 154.757 64.8649 153.164 66.3406C151.595 67.8163 149.428 68.5542 146.664 68.5542ZM146.84 57.9432C148.409 57.9432 149.662 57.3927 150.599 56.2918C151.56 55.1909 152.04 53.6801 152.04 51.7593C152.04 49.8854 151.56 48.4097 150.599 47.3322C149.662 46.2547 148.398 45.716 146.805 45.716C145.212 45.716 143.947 46.2664 143.01 47.3674C142.073 48.4449 141.605 49.944 141.605 51.8647C141.605 53.7386 142.073 55.226 143.01 56.327C143.97 57.4044 145.247 57.9432 146.84 57.9432ZM166.631 61.3514C164.289 61.3514 162.427 60.836 161.045 59.8054C159.663 58.7747 158.878 57.3225 158.69 55.4486H162.063C162.227 56.4792 162.696 57.2756 163.469 57.8378C164.265 58.3765 165.343 58.6459 166.701 58.6459C167.896 58.6459 168.81 58.4351 169.442 58.0135C170.074 57.5918 170.391 56.9945 170.391 56.2215C170.391 55.6594 170.203 55.1909 169.828 54.8161C169.477 54.4179 168.774 54.09 167.72 53.8323L164.839 53.1647C163.036 52.7197 161.689 52.0638 160.799 51.1971C159.932 50.307 159.499 49.2178 159.499 47.9295C159.499 46.3133 160.096 45.0484 161.29 44.1349C162.509 43.1979 164.172 42.7294 166.28 42.7294C168.364 42.7294 170.039 43.1979 171.304 44.1349C172.592 45.0718 173.319 46.3836 173.483 48.0701H170.11C169.969 47.2268 169.559 46.5827 168.88 46.1376C168.224 45.6691 167.322 45.4349 166.174 45.4349C165.097 45.4349 164.265 45.634 163.68 46.0322C163.118 46.407 162.836 46.934 162.836 47.6133C162.836 48.1755 163.047 48.644 163.469 49.0187C163.914 49.3935 164.64 49.7097 165.647 49.9674L168.599 50.7052C170.309 51.1269 171.597 51.8179 172.464 52.7783C173.33 53.7152 173.764 54.8513 173.764 56.1864C173.764 57.8027 173.131 59.0675 171.866 59.9811C170.625 60.8946 168.88 61.3514 166.631 61.3514ZM190.652 61.3514C188.567 61.3514 187.033 60.8712 186.049 59.9108C185.089 58.927 184.609 57.4864 184.609 55.5891V38.9699L188.228 37.5996V55.6242C188.228 56.5612 188.474 57.2522 188.966 57.6972C189.457 58.1423 190.254 58.3648 191.355 58.3648C191.776 58.3648 192.151 58.3297 192.479 58.2594C192.807 58.1891 193.088 58.1072 193.322 58.0135V60.9649C193.065 61.082 192.702 61.1757 192.233 61.2459C191.765 61.3162 191.238 61.3514 190.652 61.3514ZM181.025 45.9971V43.0808H193.322V45.9971H181.025ZM196.26 61V35.7023H199.914V61H196.26ZM208.979 61V49.4755C208.979 48.234 208.663 47.3088 208.03 46.6998C207.421 46.0908 206.508 45.7863 205.29 45.7863C204.236 45.7863 203.299 46.0205 202.479 46.489C201.682 46.9574 201.05 47.6016 200.582 48.4214C200.136 49.2413 199.914 50.2133 199.914 51.3377L199.457 47.0511C200.043 45.716 200.945 44.6619 202.163 43.8889C203.381 43.1159 204.798 42.7294 206.414 42.7294C208.335 42.7294 209.846 43.2682 210.947 44.3457C212.047 45.4232 212.598 46.852 212.598 48.6322V61H208.979ZM227.938 61C227.821 60.5549 227.739 60.063 227.692 59.5243C227.668 58.9856 227.657 58.3297 227.657 57.5567H227.481V49.0187C227.481 47.871 227.188 47.016 226.602 46.4538C226.04 45.8682 225.139 45.5754 223.897 45.5754C222.702 45.5754 221.742 45.8097 221.016 46.2782C220.313 46.7466 219.903 47.4142 219.786 48.2809H216.308C216.472 46.5944 217.233 45.2475 218.592 44.2403C219.95 43.2331 221.765 42.7294 224.038 42.7294C226.38 42.7294 228.137 43.2799 229.308 44.3808C230.479 45.4583 231.065 47.0511 231.065 49.1593V57.5567C231.065 58.0955 231.1 58.6459 231.17 59.2081C231.24 59.7703 231.346 60.3676 231.486 61H227.938ZM221.754 61.3514C219.927 61.3514 218.474 60.9063 217.397 60.0162C216.319 59.1027 215.781 57.8729 215.781 56.327C215.781 54.7341 216.343 53.481 217.467 52.5674C218.615 51.6305 220.255 50.998 222.386 50.6701L228.289 49.7214V52.2864L222.948 53.1296C221.754 53.317 220.852 53.6332 220.243 54.0783C219.657 54.5233 219.365 55.1675 219.365 56.0107C219.365 56.8306 219.634 57.4513 220.173 57.8729C220.735 58.2711 221.543 58.4702 222.597 58.4702C224.002 58.4702 225.162 58.1306 226.075 57.4513C227.012 56.772 227.481 55.917 227.481 54.8864L227.938 57.4864C227.516 58.7279 226.766 59.6883 225.689 60.3676C224.611 61.0234 223.3 61.3514 221.754 61.3514ZM242.392 61.3514C240.307 61.3514 238.773 60.8712 237.789 59.9108C236.829 58.927 236.349 57.4864 236.349 55.5891V38.9699L239.968 37.5996V55.6242C239.968 56.5612 240.214 57.2522 240.706 57.6972C241.198 58.1423 241.994 58.3648 243.095 58.3648C243.516 58.3648 243.891 58.3297 244.219 58.2594C244.547 58.1891 244.828 58.1072 245.062 58.0135V60.9649C244.805 61.082 244.442 61.1757 243.973 61.2459C243.505 61.3162 242.978 61.3514 242.392 61.3514ZM232.765 45.9971V43.0808H245.062V45.9971H232.765ZM263.961 61.3162C262.274 61.3162 260.869 60.918 259.744 60.1216C258.62 59.3018 257.882 58.1657 257.531 56.7134L257.882 56.6432V61H254.404V35.7023H258.058V47.1917L257.671 47.0863C258.07 45.7277 258.843 44.6619 259.99 43.8889C261.162 43.1159 262.567 42.7294 264.207 42.7294C265.823 42.7294 267.217 43.1159 268.388 43.8889C269.582 44.6619 270.496 45.7394 271.128 47.1214C271.784 48.5034 272.112 50.1197 272.112 51.9701C272.112 53.844 271.773 55.4837 271.093 56.8891C270.414 58.2946 269.465 59.3838 268.247 60.1567C267.029 60.9297 265.6 61.3162 263.961 61.3162ZM263.188 58.2946C264.781 58.2946 266.045 57.7324 266.982 56.608C267.919 55.4837 268.388 53.9377 268.388 51.9701C268.388 50.026 267.919 48.5151 266.982 47.4376C266.045 46.3367 264.769 45.7863 263.153 45.7863C261.56 45.7863 260.283 46.3484 259.323 47.4728C258.386 48.5737 257.917 50.1079 257.917 52.0755C257.917 53.9963 258.386 55.5188 259.323 56.6432C260.283 57.7441 261.572 58.2946 263.188 58.2946ZM275.425 61V35.7023H279.079V61H275.425ZM291.412 61.3514C289.608 61.3514 288.015 60.9532 286.633 60.1567C285.275 59.3603 284.209 58.2594 283.436 56.854C282.663 55.4486 282.276 53.8323 282.276 52.0053C282.276 50.1548 282.651 48.5385 283.401 47.1565C284.174 45.7511 285.251 44.6619 286.633 43.8889C288.015 43.1159 289.596 42.7294 291.376 42.7294C293.11 42.7294 294.609 43.1042 295.874 43.8538C297.162 44.5799 298.146 45.5989 298.825 46.9106C299.528 48.2223 299.879 49.78 299.879 51.5836C299.879 51.8647 299.868 52.1341 299.844 52.3918C299.844 52.626 299.821 52.8719 299.774 53.1296H284.736V50.389H297.209L296.295 51.4782C296.295 49.5575 295.862 48.0935 294.995 47.0863C294.129 46.079 292.922 45.5754 291.376 45.5754C289.713 45.5754 288.39 46.1493 287.406 47.2971C286.446 48.4214 285.966 49.9908 285.966 52.0053C285.966 54.0431 286.446 55.636 287.406 56.7837C288.39 57.9315 289.749 58.5054 291.482 58.5054C292.536 58.5054 293.449 58.2946 294.222 57.8729C294.995 57.4279 295.569 56.7837 295.944 55.9405H299.387C298.802 57.627 297.806 58.9504 296.401 59.9108C295.019 60.8712 293.356 61.3514 291.412 61.3514ZM303.09 61V43.0808H306.569V47.2971H306.744V61H303.09ZM315.809 61V49.4755C315.809 48.234 315.493 47.3088 314.861 46.6998C314.252 46.0908 313.338 45.7863 312.12 45.7863C311.066 45.7863 310.129 46.0205 309.309 46.489C308.513 46.9574 307.88 47.6016 307.412 48.4214C306.967 49.2413 306.744 50.2133 306.744 51.3377L306.287 47.0511C306.873 45.716 307.775 44.6619 308.993 43.8889C310.211 43.1159 311.628 42.7294 313.244 42.7294C315.165 42.7294 316.676 43.2682 317.777 44.3457C318.878 45.4232 319.428 46.852 319.428 48.6322V61H315.809ZM336.801 61V56.8891L337.152 56.9945C336.777 58.3297 336.004 59.3955 334.833 60.1919C333.662 60.9649 332.257 61.3514 330.617 61.3514C329.001 61.3514 327.584 60.9649 326.366 60.1919C325.171 59.4189 324.234 58.3414 323.555 56.9594C322.899 55.5774 322.571 53.9612 322.571 52.1107C322.571 50.2368 322.911 48.5971 323.59 47.1917C324.269 45.7863 325.218 44.697 326.436 43.9241C327.654 43.1511 329.083 42.7646 330.722 42.7646C332.432 42.7646 333.838 43.1745 334.939 43.9943C336.063 44.7907 336.801 45.9151 337.152 47.3674L336.66 47.4376V35.7023H340.279V61H336.801ZM331.531 58.2946C333.147 58.2946 334.423 57.7441 335.36 56.6432C336.297 55.5188 336.766 53.9729 336.766 52.0053C336.766 50.0845 336.286 48.5737 335.325 47.4728C334.388 46.3484 333.112 45.7863 331.495 45.7863C329.903 45.7863 328.638 46.3484 327.701 47.4728C326.787 48.5737 326.33 50.1197 326.33 52.1107C326.33 54.0548 326.787 55.5774 327.701 56.6783C328.638 57.7558 329.914 58.2946 331.531 58.2946Z" fill="white"/>
<path d="M40.1218 96.3162C38.4353 96.3162 37.0299 95.918 35.9055 95.1216C34.8046 94.3018 34.0785 93.1657 33.7271 91.7134L34.219 91.6432V103.203H30.5649V78.0808H34.0433V82.1917L33.692 82.0863C34.0668 80.7277 34.8632 79.6619 36.0812 78.8889C37.2992 78.1159 38.7281 77.7294 40.3678 77.7294C41.984 77.7294 43.3777 78.1159 44.5489 78.8889C45.7435 79.6619 46.657 80.7394 47.2895 82.1214C47.9454 83.5034 48.2733 85.1197 48.2733 86.9701C48.2733 88.844 47.9336 90.4837 47.2544 91.8891C46.5751 93.2946 45.6264 94.3838 44.4084 95.1567C43.1903 95.9297 41.7615 96.3162 40.1218 96.3162ZM39.3488 93.2946C40.9416 93.2946 42.2065 92.7324 43.1435 91.608C44.0804 90.4837 44.5489 88.9377 44.5489 86.9701C44.5489 85.026 44.0804 83.5151 43.1435 82.4376C42.2065 81.3367 40.9299 80.7863 39.3137 80.7863C37.7209 80.7863 36.4443 81.3484 35.4839 82.4728C34.5469 83.5737 34.0785 85.1079 34.0785 87.0755C34.0785 88.9963 34.5469 90.5188 35.4839 91.6432C36.4443 92.7441 37.7326 93.2946 39.3488 93.2946ZM57.4184 96.3514C56.2238 96.3514 55.1698 96.1054 54.2562 95.6135C53.3427 95.0982 52.6283 94.3955 52.113 93.5054C51.6211 92.6153 51.3751 91.5963 51.3751 90.4486V78.0808H55.0292V89.6053C55.0292 90.8468 55.3337 91.772 55.9427 92.381C56.5518 92.99 57.4184 93.2946 58.5428 93.2946C59.55 93.2946 60.4401 93.0603 61.2131 92.5918C62.0095 92.1234 62.6302 91.4792 63.0753 90.6594C63.5438 89.8161 63.778 88.844 63.778 87.7431L64.2348 92.0297C63.6492 93.3414 62.7474 94.3955 61.5293 95.1919C60.3347 95.9649 58.9644 96.3514 57.4184 96.3514ZM63.9185 96V91.7837H63.778V78.0808H67.397V96H63.9185ZM71.9893 96V78.0808H75.4678V82.543H75.6434V96H71.9893ZM75.6434 86.6539L75.1867 82.4025C75.6083 80.8799 76.3344 79.7205 77.3651 78.9241C78.3957 78.1277 79.6255 77.7294 81.0543 77.7294C81.5931 77.7294 81.9679 77.7763 82.1787 77.87V81.3133C82.0615 81.2664 81.8976 81.243 81.6868 81.243C81.476 81.2196 81.2183 81.2079 80.9138 81.2079C79.157 81.2079 77.8336 81.6646 76.9435 82.5782C76.0768 83.4917 75.6434 84.8503 75.6434 86.6539ZM94.4696 96.3162C92.7831 96.3162 91.3776 95.918 90.2533 95.1216C89.1524 94.3018 88.4262 93.1657 88.0749 91.7134L88.5668 91.6432V103.203H84.9127V78.0808H88.3911V82.1917L88.0397 82.0863C88.4145 80.7277 89.2109 79.6619 90.429 78.8889C91.647 78.1159 93.0758 77.7294 94.7155 77.7294C96.3318 77.7294 97.7255 78.1159 98.8967 78.8889C100.091 79.6619 101.005 80.7394 101.637 82.1214C102.293 83.5034 102.621 85.1197 102.621 86.9701C102.621 88.844 102.281 90.4837 101.602 91.8891C100.923 93.2946 99.9742 94.3838 98.7561 95.1567C97.5381 95.9297 96.1092 96.3162 94.4696 96.3162ZM93.6966 93.2946C95.2894 93.2946 96.5543 92.7324 97.4912 91.608C98.4282 90.4837 98.8967 88.9377 98.8967 86.9701C98.8967 85.026 98.4282 83.5151 97.4912 82.4376C96.5543 81.3367 95.2777 80.7863 93.6614 80.7863C92.0686 80.7863 90.792 81.3484 89.8317 82.4728C88.8947 83.5737 88.4262 85.1079 88.4262 87.0755C88.4262 88.9963 88.8947 90.5188 89.8317 91.6432C90.792 92.7441 92.0803 93.2946 93.6966 93.2946ZM113.837 96.3514C112.01 96.3514 110.405 95.9532 109.023 95.1567C107.641 94.3369 106.564 93.2243 105.791 91.8189C105.018 90.39 104.631 88.7738 104.631 86.9701C104.631 85.1431 105.018 83.5385 105.791 82.1565C106.587 80.7745 107.665 79.697 109.023 78.9241C110.405 78.1277 112.01 77.7294 113.837 77.7294C115.687 77.7294 117.303 78.1277 118.685 78.9241C120.067 79.697 121.133 80.7745 121.883 82.1565C122.656 83.5385 123.042 85.1431 123.042 86.9701C123.042 88.7738 122.656 90.39 121.883 91.8189C121.133 93.2243 120.067 94.3369 118.685 95.1567C117.303 95.9532 115.687 96.3514 113.837 96.3514ZM113.837 93.3648C114.938 93.3648 115.886 93.0955 116.683 92.5567C117.503 92.018 118.147 91.2684 118.615 90.308C119.084 89.3476 119.318 88.2233 119.318 86.935C119.318 85.0142 118.803 83.5034 117.772 82.4025C116.765 81.2782 115.453 80.716 113.837 80.716C112.244 80.716 110.932 81.2782 109.902 82.4025C108.894 83.5268 108.391 85.0377 108.391 86.935C108.391 88.2233 108.613 89.3476 109.058 90.308C109.527 91.2684 110.171 92.018 110.991 92.5567C111.834 93.0955 112.783 93.3648 113.837 93.3648ZM132.768 96.3514C130.425 96.3514 128.563 95.836 127.181 94.8054C125.799 93.7747 125.014 92.3225 124.827 90.4486H128.2C128.364 91.4792 128.833 92.2756 129.606 92.8378C130.402 93.3765 131.479 93.6459 132.838 93.6459C134.033 93.6459 134.946 93.4351 135.579 93.0135C136.211 92.5918 136.527 91.9945 136.527 91.2215C136.527 90.6594 136.34 90.1909 135.965 89.8161C135.614 89.4179 134.911 89.09 133.857 88.8323L130.976 88.1647C129.172 87.7197 127.825 87.0638 126.935 86.1971C126.069 85.307 125.635 84.2178 125.635 82.9295C125.635 81.3133 126.232 80.0484 127.427 79.1349C128.645 78.1979 130.308 77.7294 132.416 77.7294C134.501 77.7294 136.176 78.1979 137.441 79.1349C138.729 80.0718 139.455 81.3836 139.619 83.0701H136.246C136.106 82.2268 135.696 81.5827 135.016 81.1376C134.361 80.6691 133.459 80.4349 132.311 80.4349C131.233 80.4349 130.402 80.634 129.816 81.0322C129.254 81.407 128.973 81.934 128.973 82.6133C128.973 83.1755 129.184 83.644 129.606 84.0187C130.051 84.3935 130.777 84.7097 131.784 84.9674L134.735 85.7052C136.445 86.1269 137.734 86.8179 138.6 87.7783C139.467 88.7152 139.9 89.8513 139.9 91.1864C139.9 92.8027 139.268 94.0675 138.003 94.9811C136.761 95.8946 135.016 96.3514 132.768 96.3514ZM151.108 96.3514C149.304 96.3514 147.711 95.9532 146.329 95.1567C144.971 94.3603 143.905 93.2594 143.132 91.854C142.359 90.4486 141.972 88.8323 141.972 87.0053C141.972 85.1548 142.347 83.5385 143.097 82.1565C143.87 80.7511 144.947 79.6619 146.329 78.8889C147.711 78.1159 149.292 77.7294 151.073 77.7294C152.806 77.7294 154.305 78.1042 155.57 78.8538C156.858 79.5799 157.842 80.5989 158.521 81.9106C159.224 83.2223 159.575 84.78 159.575 86.5836C159.575 86.8647 159.564 87.1341 159.54 87.3918C159.54 87.626 159.517 87.8719 159.47 88.1296H144.432V85.389H156.905L155.992 86.4782C155.992 84.5575 155.558 83.0935 154.692 82.0863C153.825 81.079 152.619 80.5754 151.073 80.5754C149.41 80.5754 148.086 81.1493 147.102 82.2971C146.142 83.4214 145.662 84.9908 145.662 87.0053C145.662 89.0431 146.142 90.636 147.102 91.7837C148.086 92.9315 149.445 93.5054 151.178 93.5054C152.232 93.5054 153.146 93.2946 153.919 92.8729C154.692 92.4279 155.265 91.7837 155.64 90.9405H159.084C158.498 92.627 157.502 93.9504 156.097 94.9108C154.715 95.8712 153.052 96.3514 151.108 96.3514ZM180.293 96C180.176 95.5549 180.094 95.063 180.047 94.5243C180.024 93.9856 180.012 93.3297 180.012 92.5567H179.836V84.0187C179.836 82.871 179.544 82.016 178.958 81.4538C178.396 80.8682 177.494 80.5754 176.253 80.5754C175.058 80.5754 174.098 80.8097 173.371 81.2782C172.669 81.7466 172.259 82.4142 172.142 83.2809H168.663C168.827 81.5944 169.588 80.2475 170.947 79.2403C172.306 78.2331 174.121 77.7294 176.393 77.7294C178.735 77.7294 180.492 78.2799 181.663 79.3808C182.835 80.4583 183.42 82.0511 183.42 84.1593V92.5567C183.42 93.0955 183.455 93.6459 183.526 94.2081C183.596 94.7703 183.701 95.3676 183.842 96H180.293ZM174.109 96.3514C172.282 96.3514 170.83 95.9063 169.752 95.0162C168.675 94.1027 168.136 92.8729 168.136 91.327C168.136 89.7341 168.698 88.481 169.823 87.5674C170.97 86.6305 172.61 85.998 174.742 85.6701L180.644 84.7214V87.2864L175.304 88.1296C174.109 88.317 173.207 88.6332 172.598 89.0783C172.013 89.5233 171.72 90.1675 171.72 91.0107C171.72 91.8306 171.989 92.4513 172.528 92.8729C173.09 93.2711 173.898 93.4702 174.953 93.4702C176.358 93.4702 177.517 93.1306 178.431 92.4513C179.368 91.772 179.836 90.917 179.836 89.8864L180.293 92.4864C179.872 93.7279 179.122 94.6883 178.044 95.3676C176.967 96.0234 175.655 96.3514 174.109 96.3514ZM187.844 96V78.0808H191.322V82.2971H191.498V96H187.844ZM200.563 96V84.4755C200.563 83.234 200.247 82.3088 199.614 81.6998C199.005 81.0908 198.092 80.7863 196.874 80.7863C195.82 80.7863 194.883 81.0205 194.063 81.489C193.266 81.9574 192.634 82.6016 192.165 83.4214C191.72 84.2413 191.498 85.2133 191.498 86.3377L191.041 82.0511C191.627 80.716 192.528 79.6619 193.747 78.8889C194.965 78.1159 196.382 77.7294 197.998 77.7294C199.919 77.7294 201.43 78.2682 202.53 79.3457C203.631 80.4232 204.182 81.852 204.182 83.6322V96H200.563ZM221.554 96V91.8891L221.906 91.9945C221.531 93.3297 220.758 94.3955 219.587 95.1919C218.416 95.9649 217.01 96.3514 215.371 96.3514C213.754 96.3514 212.337 95.9649 211.119 95.1919C209.925 94.4189 208.988 93.3414 208.308 91.9594C207.652 90.5774 207.325 88.9612 207.325 87.1107C207.325 85.2368 207.664 83.5971 208.343 82.1917C209.023 80.7863 209.971 79.697 211.189 78.9241C212.407 78.1511 213.836 77.7646 215.476 77.7646C217.186 77.7646 218.591 78.1745 219.692 78.9943C220.817 79.7907 221.554 80.9151 221.906 82.3674L221.414 82.4376V70.7023H225.033V96H221.554ZM216.284 93.2946C217.9 93.2946 219.177 92.7441 220.114 91.6432C221.051 90.5188 221.519 88.9729 221.519 87.0053C221.519 85.0845 221.039 83.5737 220.079 82.4728C219.142 81.3484 217.865 80.7863 216.249 80.7863C214.656 80.7863 213.391 81.3484 212.454 82.4728C211.541 83.5737 211.084 85.1197 211.084 87.1107C211.084 89.0548 211.541 90.5774 212.454 91.6783C213.391 92.7558 214.668 93.2946 216.284 93.2946ZM245.607 96.3162C243.92 96.3162 242.515 95.918 241.39 95.1216C240.289 94.3018 239.563 93.1657 239.212 91.7134L239.704 91.6432V103.203H236.05V78.0808H239.528V82.1917L239.177 82.0863C239.551 80.7277 240.348 79.6619 241.566 78.8889C242.784 78.1159 244.213 77.7294 245.852 77.7294C247.469 77.7294 248.862 78.1159 250.034 78.8889C251.228 79.6619 252.142 80.7394 252.774 82.1214C253.43 83.5034 253.758 85.1197 253.758 86.9701C253.758 88.844 253.418 90.4837 252.739 91.8891C252.06 93.2946 251.111 94.3838 249.893 95.1567C248.675 95.9297 247.246 96.3162 245.607 96.3162ZM244.834 93.2946C246.426 93.2946 247.691 92.7324 248.628 91.608C249.565 90.4837 250.034 88.9377 250.034 86.9701C250.034 85.026 249.565 83.5151 248.628 82.4376C247.691 81.3367 246.415 80.7863 244.798 80.7863C243.206 80.7863 241.929 81.3484 240.969 82.4728C240.032 83.5737 239.563 85.1079 239.563 87.0755C239.563 88.9963 240.032 90.5188 240.969 91.6432C241.929 92.7441 243.217 93.2946 244.834 93.2946ZM257.071 96V70.7023H260.725V96H257.071ZM276.43 96C276.313 95.5549 276.231 95.063 276.184 94.5243C276.161 93.9856 276.149 93.3297 276.149 92.5567H275.974V84.0187C275.974 82.871 275.681 82.016 275.095 81.4538C274.533 80.8682 273.631 80.5754 272.39 80.5754C271.195 80.5754 270.235 80.8097 269.509 81.2782C268.806 81.7466 268.396 82.4142 268.279 83.2809H264.8C264.964 81.5944 265.726 80.2475 267.084 79.2403C268.443 78.2331 270.258 77.7294 272.53 77.7294C274.873 77.7294 276.629 78.2799 277.801 79.3808C278.972 80.4583 279.557 82.0511 279.557 84.1593V92.5567C279.557 93.0955 279.593 93.6459 279.663 94.2081C279.733 94.7703 279.839 95.3676 279.979 96H276.43ZM270.246 96.3514C268.419 96.3514 266.967 95.9063 265.89 95.0162C264.812 94.1027 264.273 92.8729 264.273 91.327C264.273 89.7341 264.836 88.481 265.96 87.5674C267.108 86.6305 268.747 85.998 270.879 85.6701L276.782 84.7214V87.2864L271.441 88.1296C270.246 88.317 269.345 88.6332 268.736 89.0783C268.15 89.5233 267.857 90.1675 267.857 91.0107C267.857 91.8306 268.127 92.4513 268.665 92.8729C269.228 93.2711 270.036 93.4702 271.09 93.4702C272.495 93.4702 273.655 93.1306 274.568 92.4513C275.505 91.772 275.974 90.917 275.974 89.8864L276.43 92.4864C276.009 93.7279 275.259 94.6883 274.182 95.3676C273.104 96.0234 271.792 96.3514 270.246 96.3514ZM291.292 96.3514C289.583 96.3514 288.06 95.9532 286.725 95.1567C285.39 94.3369 284.336 93.2243 283.563 91.8189C282.813 90.4134 282.438 88.8089 282.438 87.0053C282.438 85.2016 282.813 83.6088 283.563 82.2268C284.336 80.8214 285.39 79.7205 286.725 78.9241C288.06 78.1277 289.571 77.7294 291.257 77.7294C292.686 77.7294 293.963 77.9988 295.087 78.5376C296.211 79.0763 297.137 79.8259 297.863 80.7863C298.589 81.7466 299.057 82.8827 299.268 84.1944H295.825C295.591 83.1403 295.075 82.2971 294.279 81.6646C293.506 81.0322 292.522 80.716 291.328 80.716C290.297 80.716 289.395 80.9736 288.622 81.489C287.849 82.0043 287.252 82.7304 286.83 83.6674C286.409 84.6043 286.198 85.717 286.198 87.0053C286.198 88.2702 286.409 89.3828 286.83 90.3432C287.252 91.3035 287.849 92.0531 288.622 92.5918C289.395 93.1072 290.309 93.3648 291.363 93.3648C292.511 93.3648 293.483 93.0603 294.279 92.4513C295.099 91.8189 295.626 90.9756 295.86 89.9215H299.303C299.069 91.2098 298.577 92.3342 297.828 93.2946C297.102 94.2549 296.176 95.0045 295.052 95.5432C293.928 96.082 292.674 96.3514 291.292 96.3514ZM310.055 96.3514C308.252 96.3514 306.659 95.9532 305.277 95.1567C303.918 94.3603 302.853 93.2594 302.08 91.854C301.307 90.4486 300.92 88.8323 300.92 87.0053C300.92 85.1548 301.295 83.5385 302.045 82.1565C302.818 80.7511 303.895 79.6619 305.277 78.8889C306.659 78.1159 308.24 77.7294 310.02 77.7294C311.754 77.7294 313.253 78.1042 314.518 78.8538C315.806 79.5799 316.79 80.5989 317.469 81.9106C318.172 83.2223 318.523 84.78 318.523 86.5836C318.523 86.8647 318.511 87.1341 318.488 87.3918C318.488 87.626 318.465 87.8719 318.418 88.1296H303.38V85.389H315.853L314.939 86.4782C314.939 84.5575 314.506 83.0935 313.639 82.0863C312.773 81.079 311.566 80.5754 310.02 80.5754C308.357 80.5754 307.034 81.1493 306.05 82.2971C305.09 83.4214 304.609 84.9908 304.609 87.0053C304.609 89.0431 305.09 90.636 306.05 91.7837C307.034 92.9315 308.392 93.5054 310.126 93.5054C311.18 93.5054 312.093 93.2946 312.866 92.8729C313.639 92.4279 314.213 91.7837 314.588 90.9405H318.031C317.446 92.627 316.45 93.9504 315.045 94.9108C313.663 95.8712 312 96.3514 310.055 96.3514ZM320.223 96V91.6432H324.544V96H320.223Z" fill="white" fill-opacity="0.38"/>
<path d="M260.156 238.168H262.116V262.584H260.156V238.168ZM285.924 238.98H288.444V256.76H298.944V259H285.924V238.98ZM311.267 244.72L305.163 260.176C304.547 261.716 303.819 263.816 301.187 263.816C300.291 263.816 299.647 263.648 299.283 263.536V261.856H299.619C300.851 261.968 301.719 261.884 302.475 261.072C303.063 260.428 303.651 259.224 303.091 257.824L297.687 244.72H300.207L304.575 256.368H304.631L308.747 244.72H311.267ZM318.832 246.68H316.032V255.276C316.032 256.9 316.928 257.18 318.832 257.04V259C318.328 259.112 317.74 259.168 317.152 259.168C315.248 259.168 313.792 258.412 313.792 255.5V246.68H311.692V244.72H313.792V239.96H316.032V244.72H318.832V246.68ZM320.732 238.98H322.972V259H320.732V238.98ZM331.693 257.432C334.549 257.432 335.613 255.584 335.865 254.604H338.105C337.377 257.264 335.333 259.392 331.777 259.392C327.437 259.392 324.805 256.34 324.805 251.86C324.805 247.1 327.493 244.328 331.665 244.328C336.145 244.328 338.329 247.38 338.329 252.448H327.045C327.045 255.024 328.585 257.432 331.693 257.432ZM331.665 246.288C328.977 246.288 327.045 248.192 327.045 250.488H336.089C336.089 248.192 334.353 246.288 331.665 246.288ZM357.026 253.988H348.206L346.442 259H343.838L351.23 238.98H354.03L361.394 259H358.79L357.026 253.988ZM349.046 251.748H356.214L352.658 241.304H352.602L349.046 251.748ZM368.359 250.516C370.907 251.132 373.791 251.552 373.791 255.08C373.791 257.684 371.411 259.392 368.163 259.392C363.795 259.392 361.779 257.32 361.639 254.24H363.879C364.019 255.836 364.579 257.432 368.163 257.432C370.599 257.432 371.551 256.172 371.551 255.22C371.551 253.148 369.675 253.036 367.631 252.532C365.447 252 362.199 251.748 362.199 248.388C362.199 246.148 364.187 244.328 367.547 244.328C371.103 244.328 373.007 246.344 373.231 248.808H370.991C370.767 247.716 370.235 246.288 367.547 246.288C365.531 246.288 364.439 247.1 364.439 248.22C364.439 249.9 366.371 250.04 368.359 250.516ZM381.231 250.516C383.779 251.132 386.663 251.552 386.663 255.08C386.663 257.684 384.283 259.392 381.035 259.392C376.667 259.392 374.651 257.32 374.511 254.24H376.751C376.891 255.836 377.451 257.432 381.035 257.432C383.471 257.432 384.423 256.172 384.423 255.22C384.423 253.148 382.547 253.036 380.503 252.532C378.319 252 375.071 251.748 375.071 248.388C375.071 246.148 377.059 244.328 380.419 244.328C383.975 244.328 385.879 246.344 386.103 248.808H383.863C383.639 247.716 383.107 246.288 380.419 246.288C378.403 246.288 377.311 247.1 377.311 248.22C377.311 249.9 379.243 250.04 381.231 250.516ZM394.767 259.392C390.399 259.392 387.767 256.312 387.767 251.86C387.767 247.408 390.399 244.328 394.767 244.328C399.107 244.328 401.739 247.408 401.739 251.86C401.739 256.312 399.107 259.392 394.767 259.392ZM394.767 257.432C397.959 257.432 399.499 254.912 399.499 251.86C399.499 248.808 397.959 246.288 394.767 246.288C391.547 246.288 390.007 248.808 390.007 251.86C390.007 254.912 391.547 257.432 394.767 257.432ZM413.61 249.872C413.498 248.304 412.434 246.288 409.578 246.288C406.19 246.288 404.902 249.172 404.902 251.86C404.902 254.548 406.19 257.432 409.578 257.432C412.462 257.432 413.498 255.444 413.61 253.736H415.85C415.654 256.984 413.106 259.392 409.578 259.392C405.406 259.392 402.662 256.34 402.662 251.86C402.662 247.38 405.406 244.328 409.578 244.328C413.106 244.328 415.514 246.68 415.85 249.872H413.61ZM418.867 241.948C418.251 241.948 417.467 241.472 417.467 240.604C417.467 239.736 418.251 239.26 418.867 239.26C419.511 239.26 420.267 239.736 420.267 240.604C420.267 241.472 419.511 241.948 418.867 241.948ZM417.747 244.72H419.987V259H417.747V244.72ZM431.555 248.36C431.555 247.24 430.939 246.288 428.643 246.288C425.927 246.288 425.031 247.072 424.891 249.144H422.651C422.791 246.4 424.499 244.328 428.643 244.328C431.359 244.328 433.795 245.392 433.795 248.836V255.78C433.795 256.9 433.991 257.516 435.419 257.348V258.916C434.831 259.112 434.523 259.14 434.103 259.14C432.759 259.14 431.947 258.776 431.555 257.208H431.499C430.603 258.552 429.007 259.392 426.655 259.392C423.771 259.392 421.951 257.74 421.951 255.332C421.951 252.084 424.359 251.244 428.055 250.544C430.463 250.096 431.555 249.788 431.555 248.36ZM426.879 257.432C429.539 257.432 431.555 256.228 431.555 253.484V251.104C431.135 251.524 429.763 251.916 428.251 252.224C425.479 252.812 424.191 253.512 424.191 255.22C424.191 256.62 425.031 257.432 426.879 257.432ZM442.508 246.68H439.708V255.276C439.708 256.9 440.604 257.18 442.508 257.04V259C442.004 259.112 441.416 259.168 440.828 259.168C438.924 259.168 437.468 258.412 437.468 255.5V246.68H435.368V244.72H437.468V239.96H439.708V244.72H442.508V246.68ZM450.262 257.432C453.118 257.432 454.182 255.584 454.434 254.604H456.674C455.946 257.264 453.902 259.392 450.346 259.392C446.006 259.392 443.374 256.34 443.374 251.86C443.374 247.1 446.062 244.328 450.234 244.328C454.714 244.328 456.898 247.38 456.898 252.448H445.614C445.614 255.024 447.154 257.432 450.262 257.432ZM450.234 246.288C447.546 246.288 445.614 248.192 445.614 250.488H454.658C454.658 248.192 452.922 246.288 450.234 246.288ZM464.385 250.516C466.933 251.132 469.817 251.552 469.817 255.08C469.817 257.684 467.437 259.392 464.189 259.392C459.821 259.392 457.805 257.32 457.665 254.24H459.905C460.045 255.836 460.605 257.432 464.189 257.432C466.625 257.432 467.577 256.172 467.577 255.22C467.577 253.148 465.701 253.036 463.657 252.532C461.473 252 458.225 251.748 458.225 248.388C458.225 246.148 460.213 244.328 463.573 244.328C467.129 244.328 469.033 246.344 469.257 248.808H467.017C466.793 247.716 466.261 246.288 463.573 246.288C461.557 246.288 460.465 247.1 460.465 248.22C460.465 249.9 462.397 250.04 464.385 250.516ZM482.335 250.516C484.883 251.132 487.767 251.552 487.767 255.08C487.767 257.684 485.387 259.392 482.139 259.392C477.771 259.392 475.755 257.32 475.615 254.24H477.855C477.995 255.836 478.555 257.432 482.139 257.432C484.575 257.432 485.527 256.172 485.527 255.22C485.527 253.148 483.651 253.036 481.607 252.532C479.423 252 476.175 251.748 476.175 248.388C476.175 246.148 478.163 244.328 481.523 244.328C485.079 244.328 486.983 246.344 487.207 248.808H484.967C484.743 247.716 484.211 246.288 481.523 246.288C479.507 246.288 478.415 247.1 478.415 248.22C478.415 249.9 480.347 250.04 482.335 250.516ZM490.81 241.948C490.194 241.948 489.41 241.472 489.41 240.604C489.41 239.736 490.194 239.26 490.81 239.26C491.454 239.26 492.21 239.736 492.21 240.604C492.21 241.472 491.454 241.948 490.81 241.948ZM489.69 244.72H491.93V259H489.69V244.72ZM501.762 244.328C504.366 244.328 506.55 245.756 506.55 249.032V259H504.31V249.592C504.31 247.744 503.442 246.288 501.202 246.288C498.682 246.288 497.002 247.884 497.002 250.096V259H494.762V244.72H497.002V246.428H497.058C497.814 245.42 499.326 244.328 501.762 244.328ZM519.164 249.872C519.052 248.304 517.988 246.288 515.132 246.288C511.744 246.288 510.456 249.172 510.456 251.86C510.456 254.548 511.744 257.432 515.132 257.432C518.016 257.432 519.052 255.444 519.164 253.736H521.404C521.208 256.984 518.66 259.392 515.132 259.392C510.96 259.392 508.216 256.34 508.216 251.86C508.216 247.38 510.96 244.328 515.132 244.328C518.66 244.328 521.068 246.68 521.404 249.872H519.164ZM529.097 257.432C531.953 257.432 533.017 255.584 533.269 254.604H535.509C534.781 257.264 532.737 259.392 529.181 259.392C524.841 259.392 522.209 256.34 522.209 251.86C522.209 247.1 524.897 244.328 529.069 244.328C533.549 244.328 535.733 247.38 535.733 252.448H524.449C524.449 255.024 525.989 257.432 529.097 257.432ZM529.069 246.288C526.381 246.288 524.449 248.192 524.449 250.488H533.493C533.493 248.192 531.757 246.288 529.069 246.288ZM546.506 239.652H548.466V259H545.946V244.524C544.77 245.644 543.65 245.644 541.914 245.644V243.824C545.302 243.824 546.226 242.172 546.506 239.652ZM562.686 249.396C561.734 251.216 559.774 252.28 557.506 252.28C553.81 252.28 551.234 249.732 551.234 245.896C551.234 242.312 553.754 239.26 557.954 239.26C563.246 239.26 565.206 243.18 565.206 249.34C565.206 255.78 562.686 259.392 557.87 259.392C554.258 259.392 552.018 256.928 551.738 254.1H554.258C554.51 255.976 555.686 257.152 557.87 257.152C561.874 257.152 562.63 253.344 562.686 249.452V249.396ZM557.954 241.5C555.294 241.5 553.754 243.152 553.754 245.728C553.754 248.5 555.434 250.04 557.73 250.04C560.53 250.04 562.406 248.276 562.406 245.672C562.406 243.18 560.754 241.5 557.954 241.5ZM566.726 253.568C566.726 250.88 568.462 249.564 570.31 248.752V248.696C568.938 247.968 567.706 246.736 567.706 244.552C567.706 241.22 570.282 239.26 573.978 239.26C577.674 239.26 580.25 241.22 580.25 244.552C580.25 246.736 578.99 247.968 577.646 248.696V248.752C579.466 249.564 581.23 250.88 581.23 253.568C581.23 257.46 578.122 259.392 573.978 259.392C569.834 259.392 566.726 257.46 566.726 253.568ZM573.978 247.604C576.218 247.604 577.73 246.708 577.73 244.552C577.73 242.452 576.218 241.5 573.978 241.5C571.738 241.5 570.226 242.452 570.226 244.552C570.226 246.708 571.738 247.604 573.978 247.604ZM573.978 257.152C576.862 257.152 578.71 255.892 578.71 253.484C578.71 251.132 576.862 249.844 573.978 249.844C571.094 249.844 569.246 251.132 569.246 253.484C569.246 255.892 571.094 257.152 573.978 257.152ZM581.724 239.652H595.136V241.612C590.74 245.308 587.184 252.756 587.184 259H584.524C584.524 252.532 588.892 245.028 592.336 241.948V241.892H581.724V239.652Z" fill="white" fill-opacity="0.5"/>
<path opacity="0.5" d="M137.468 253.988H128.648L126.884 259H124.28L131.672 238.98H134.472L141.836 259H139.232L137.468 253.988ZM129.488 251.748H136.656L133.1 241.304H133.044L129.488 251.748ZM149.386 244.328C149.918 244.328 150.31 244.356 150.702 244.412V246.652H150.646C147.538 246.148 145.382 248.332 145.382 251.384V259H143.142V244.72H145.382V247.548H145.438C146.194 245.672 147.342 244.328 149.386 244.328ZM161.802 249.872C161.69 248.304 160.626 246.288 157.77 246.288C154.382 246.288 153.094 249.172 153.094 251.86C153.094 254.548 154.382 257.432 157.77 257.432C160.654 257.432 161.69 255.444 161.802 253.736H164.042C163.846 256.984 161.298 259.392 157.77 259.392C153.598 259.392 150.854 256.34 150.854 251.86C150.854 247.38 153.598 244.328 157.77 244.328C161.298 244.328 163.706 246.68 164.042 249.872H161.802ZM172.658 244.328C175.262 244.328 177.446 245.756 177.446 249.032V259H175.206V249.592C175.206 247.744 174.338 246.288 172.098 246.288C169.578 246.288 167.898 247.884 167.898 250.096V259H165.658V238.98H167.898V246.428H167.954C168.71 245.42 170.222 244.328 172.658 244.328ZM181.324 241.948C180.708 241.948 179.924 241.472 179.924 240.604C179.924 239.736 180.708 239.26 181.324 239.26C181.968 239.26 182.724 239.736 182.724 240.604C182.724 241.472 181.968 241.948 181.324 241.948ZM180.204 244.72H182.444V259H180.204V244.72ZM191.492 246.68H188.692V255.276C188.692 256.9 189.588 257.18 191.492 257.04V259C190.988 259.112 190.4 259.168 189.812 259.168C187.908 259.168 186.452 258.412 186.452 255.5V246.68H184.352V244.72H186.452V239.96H188.692V244.72H191.492V246.68ZM199.247 257.432C202.103 257.432 203.167 255.584 203.419 254.604H205.659C204.931 257.264 202.887 259.392 199.331 259.392C194.991 259.392 192.359 256.34 192.359 251.86C192.359 247.1 195.047 244.328 199.219 244.328C203.699 244.328 205.883 247.38 205.883 252.448H194.599C194.599 255.024 196.139 257.432 199.247 257.432ZM199.219 246.288C196.531 246.288 194.599 248.192 194.599 250.488H203.643C203.643 248.192 201.907 246.288 199.219 246.288ZM217.709 249.872C217.597 248.304 216.533 246.288 213.677 246.288C210.289 246.288 209.001 249.172 209.001 251.86C209.001 254.548 210.289 257.432 213.677 257.432C216.561 257.432 217.597 255.444 217.709 253.736H219.949C219.753 256.984 217.205 259.392 213.677 259.392C209.505 259.392 206.761 256.34 206.761 251.86C206.761 247.38 209.505 244.328 213.677 244.328C217.205 244.328 219.613 246.68 219.949 249.872H217.709ZM227.782 246.68H224.982V255.276C224.982 256.9 225.878 257.18 227.782 257.04V259C227.278 259.112 226.69 259.168 226.102 259.168C224.198 259.168 222.742 258.412 222.742 255.5V246.68H220.642V244.72H222.742V239.96H224.982V244.72H227.782V246.68ZM235.393 250.516C237.941 251.132 240.825 251.552 240.825 255.08C240.825 257.684 238.445 259.392 235.197 259.392C230.829 259.392 228.813 257.32 228.673 254.24H230.913C231.053 255.836 231.613 257.432 235.197 257.432C237.633 257.432 238.585 256.172 238.585 255.22C238.585 253.148 236.709 253.036 234.665 252.532C232.481 252 229.233 251.748 229.233 248.388C229.233 246.148 231.221 244.328 234.581 244.328C238.137 244.328 240.041 246.344 240.265 248.808H238.025C237.801 247.716 237.269 246.288 234.581 246.288C232.565 246.288 231.473 247.1 231.473 248.22C231.473 249.9 233.405 250.04 235.393 250.516Z" fill="white"/>
<path d="M45.964 259.158L44.2754 261.485L41.2644 259.298C40.9688 259.083 40.6128 258.967 40.2472 258.967H32.6446C32.034 258.966 31.4487 258.723 31.0171 258.291L28.6754 255.954C28.4611 255.739 28.2912 255.485 28.1753 255.205C28.0594 254.925 27.9998 254.625 28 254.322V244.848H30.8482V253.321C30.8492 253.779 31.0313 254.218 31.3548 254.542L32.4228 255.61C32.7469 255.933 33.1857 256.115 33.6435 256.116H41.413C41.6566 256.117 41.8938 256.194 42.0904 256.338L45.964 259.158Z" fill="#FEFEFE"/>
<path d="M45.9638 244.645V254.119H43.1156V245.646C43.1146 245.188 42.9325 244.749 42.609 244.425L41.541 243.357C41.217 243.033 40.7781 242.851 40.3203 242.85H32.1826V240H41.3192C41.9298 240.001 42.5151 240.244 42.9468 240.675L45.2925 243.013C45.506 243.228 45.6752 243.482 45.7904 243.762C45.9056 244.042 45.9645 244.342 45.9638 244.645Z" fill="#FEFEFE"/>
<path d="M48.1243 243.618C48.9563 243.603 49.821 243.618 50.6571 243.618V249.782C50.6571 252.669 50.1872 256.622 54.2967 256.715C56.8926 256.793 58.7724 254.907 58.8762 252.333C58.9087 251.414 58.8762 250.476 58.8762 249.554V243.618C59.7042 243.601 60.5648 243.618 61.3948 243.618V258.994H58.9372V256.88C56.7665 259.574 52.3009 259.932 49.8149 257.549C47.7967 255.613 48.1161 252.278 48.1161 249.741L48.1243 243.618Z" fill="#FEFEFE"/>
<path d="M98.1997 243.581C98.5557 243.518 100.596 243.558 101.048 243.562C101.058 244.376 101.048 245.206 101.048 246.004H99.3735C97.9698 246.004 96.8793 246.059 95.8174 247.118C94.2183 248.726 94.5255 251.189 94.5255 253.254V258.985H91.9784V258.798C91.9479 256.994 91.9784 255.106 91.9784 253.293V243.615C92.7922 243.607 93.6059 243.607 94.4197 243.615C94.4197 244.244 94.4197 244.974 94.4075 245.603C95.5244 244.309 96.4623 243.752 98.1915 243.579L98.1997 243.581Z" fill="#FEFEFE"/>
<path d="M86.7947 243.581C87.1894 243.52 89.1099 243.559 89.6429 243.563V246.016C87.8912 246.016 85.7937 245.731 84.4408 247.092C82.8133 248.74 83.1103 251.161 83.1124 253.314V258.988H80.5693V243.616C81.3831 243.601 82.2091 243.603 83.029 243.616V245.577C84.1479 244.273 85.1061 243.746 86.8089 243.575L86.7947 243.581Z" fill="#FEFEFE"/>
<path d="M107.05 264.305L108.881 259.002L103.138 243.615H105.817L110.126 256.082L114.321 243.611H117L109.542 264.305H107.05Z" fill="#FEFEFE"/>
<path d="M70.4344 243.339C70.5849 243.339 70.7355 243.339 70.884 243.349C72.9612 243.455 74.371 244.26 75.7341 245.766C75.7341 243.538 75.7341 244.242 75.7341 243.591H78.1754L78.1388 258.996H75.6975C75.6975 258.996 75.7341 255 75.6975 253.155C75.6771 252.197 75.7178 251.033 75.5896 250.089C75.5161 249.518 75.362 248.959 75.1319 248.431C74.0313 245.955 71.3336 245.105 68.8598 246.104C67.6188 246.61 66.8253 247.719 66.3676 248.952C65.4155 252.252 66.512 256.363 70.5341 256.622C72.3101 256.736 73.2358 256.174 74.5032 255.067C74.487 255.95 74.5032 256.898 74.5032 257.787C73.4824 258.517 72.275 258.94 71.0223 259.008C66.6666 259.27 63.6821 255.991 63.4828 251.774C63.2773 247.249 65.7003 243.599 70.4344 243.339Z" fill="#FEFEFE"/>
<path d="M418.816 55.2666V96.11H406.537V59.5816C406.533 57.608 405.748 55.7162 404.353 54.3194L399.749 49.715C398.352 48.3206 396.46 47.5356 394.487 47.5311H359.405V35.2439H398.793C401.425 35.2469 403.948 36.2941 405.809 38.1556L415.921 48.2328C416.842 49.1577 417.571 50.2549 418.068 51.4618C418.565 52.6687 418.819 53.9615 418.816 55.2666Z" fill="#D5D0C5"/>
<path d="M911.731 239.449L893.777 264.196L861.763 240.942C858.62 238.655 854.834 237.421 850.947 237.416H770.111C763.619 237.408 757.395 234.826 752.805 230.234L727.908 205.38C725.629 203.102 723.822 200.397 722.59 197.421C721.357 194.444 720.724 191.253 720.726 188.031V87.2939H751.01V177.389C751.021 182.257 752.957 186.922 756.396 190.368L767.753 201.724C771.198 205.163 775.864 207.099 780.732 207.11H863.342C865.932 207.113 868.455 207.939 870.545 209.468L911.731 239.449Z" fill="#EB5717"/>
<path d="M911.73 85.1345V185.872H881.446V95.7771C881.435 90.9093 879.498 86.2435 876.059 82.7983L864.703 71.4418C861.258 68.0028 856.592 66.0665 851.724 66.0556H765.198V35.75H862.345C868.837 35.7575 875.061 38.3403 879.65 42.9316L904.591 67.7861C906.862 70.0674 908.661 72.7736 909.886 75.7503C911.111 78.7269 911.737 81.9157 911.73 85.1345Z" fill="#EB5717"/>
</svg>
