<?xml version="1.0" encoding="UTF-8"?><svg id="b" xmlns="http://www.w3.org/2000/svg" viewBox="0 0 928.01 253.91"><g id="c"><path d="M348.21,198.05V37.72c-8.65,0-17.63-.17-26.27,0v61.9c0,9.6.34,19.39,0,28.97-1.08,26.83-20.68,46.5-47.74,45.69-42.85-.97-37.96-42.19-37.96-72.29V37.72c-8.72,0-17.73-.15-26.41,0l-.09,63.85c0,26.45-3.32,61.22,17.72,81.42,25.92,24.83,72.48,21.1,95.12-6.98v22.05h25.63Z" fill="#fff"/><path d="M761.66,37.15c-4.7-.04-25.98-.46-29.69.19l-.08-.02c-18.04,1.81-27.82,7.62-39.46,21.11.12-6.56.12-14.18.12-20.73-8.48-.08-16.96-.08-25.45,0v100.91c0,18.9-.32,38.59,0,57.4v1.96h26.56v-59.76c0-21.53-3.2-47.22,13.47-63.97,11.08-11.05,22.45-11.63,37.07-11.63h17.46c0-8.32.11-16.97,0-25.46Z" fill="#fff"/><path d="M613.06,37.34l.14-.06c-17.76,1.78-27.74,7.28-39.41,20.87v-20.45c-8.55-.13-17.16-.14-25.65,0v160.28h26.52v-59.16c-.02-22.44-3.12-47.69,13.85-64.87,14.11-14.19,35.98-11.22,54.24-11.22v-25.59c-5.55-.04-25.58-.45-29.69.19Z" fill="#fff"/><polygon points="900.06 37.66 856.33 167.7 811.4 37.7 783.46 37.7 843.34 198.13 824.25 253.44 850.23 253.44 928.01 37.66 900.06 37.66" fill="#fff"/><path d="M497.72,60.12c-14.22-15.69-28.92-24.1-50.57-25.2-1.55-.1-3.12-.1-4.69-.1-49.37,2.72-74.62,40.77-72.48,87.95,2.08,43.97,33.19,78.16,78.61,75.43,13.06-.71,25.65-5.12,36.3-12.73,0-9.27-.18-19.15,0-28.36-13.22,11.54-22.87,17.4-41.39,16.2-41.93-2.69-53.37-45.56-43.44-79.97,4.78-12.86,13.05-24.42,25.99-29.7,25.79-10.42,53.93-1.55,65.4,24.27,2.4,5.51,4,11.33,4.77,17.28,1.33,9.84.91,21.98,1.13,31.97.38,19.24,0,60.9,0,60.9h25.46l.38-160.63h-25.45v22.68Z" fill="#fff"/><path d="M450.78,244.16c-.54.86-1.17,1.59-1.94,2.18-.76.59-1.62,1.04-2.58,1.34-.97.31-2,.46-3.11.46-2.09,0-3.9-.51-5.45-1.53-1.55-1.01-2.75-2.47-3.6-4.36-.85-1.89-1.27-4.16-1.27-6.81s.42-4.92,1.27-6.82c.85-1.9,2.05-3.36,3.6-4.39,1.55-1.03,3.36-1.54,5.45-1.54,1.11,0,2.15.15,3.12.46.97.3,1.84.76,2.6,1.35.77.59,1.41,1.32,1.93,2.17.52.86.9,1.85,1.12,2.95h6.45c-.29-1.96-.87-3.72-1.74-5.28-.88-1.56-1.99-2.89-3.33-4-1.35-1.09-2.88-1.93-4.62-2.51-1.73-.58-3.6-.87-5.59-.87-3.22,0-6.09.75-8.6,2.24-2.51,1.49-4.48,3.63-5.92,6.39-1.44,2.76-2.15,6.05-2.15,9.85s.71,7.06,2.15,9.81c1.44,2.76,3.41,4.89,5.92,6.38,2.51,1.49,5.38,2.24,8.6,2.24,2.05,0,3.96-.3,5.71-.93,1.75-.62,3.29-1.49,4.63-2.62,1.34-1.13,2.44-2.47,3.28-4,.86-1.54,1.41-3.24,1.69-5.08h-6.47c-.22,1.09-.6,2.07-1.13,2.92Z" fill="#fff"/><path d="M398.78,238.87c1.93-.93,3.42-2.23,4.46-3.92,1.05-1.69,1.57-3.68,1.57-5.98s-.5-4.35-1.5-6.06c-1-1.72-2.45-3.04-4.35-4-1.9-.94-4.19-1.41-6.87-1.41h-13.74v35.85h6.4v-13.09h7.07s0,0,0,0l6.87,13.09h7.08l-7.6-14.23c.2-.08.42-.15.61-.24ZM395.28,234.23c-1.03.48-2.29.73-3.8.73h-6.74v-12.08h6.71c1.53,0,2.8.25,3.83.74,1.02.49,1.81,1.18,2.33,2.09.53.9.79,1.99.79,3.26s-.26,2.3-.79,3.2c-.53.9-1.31,1.59-2.33,2.07Z" fill="#fff"/><path d="M335.86,217.49l-12.68,35.85h6.93l2.94-8.71h13.69l2.93,8.71h7.02l-12.78-35.85h-8.05ZM334.8,239.43l1.63-4.84c.61-1.93,1.25-4.07,1.93-6.39.47-1.58.97-3.35,1.51-5.28.54,1.92,1.05,3.68,1.51,5.26.69,2.33,1.35,4.47,1.97,6.42l1.63,4.84h-10.19Z" fill="#fff"/><polygon points="504.45 232.28 487.85 232.28 487.85 217.49 481.45 217.49 481.45 253.34 487.85 253.34 487.85 237.75 504.45 237.75 504.45 253.34 510.85 253.34 510.85 217.49 504.45 217.49 504.45 232.28" fill="#fff"/><path d="M786.48,236.47c-.94-.81-2.06-1.51-3.37-2.09-1.3-.58-2.76-1.05-4.39-1.41l-3.52-.85c-1.29-.3-2.42-.66-3.36-1.08-.95-.42-1.69-.93-2.21-1.54-.52-.61-.78-1.36-.78-2.26s.28-1.78.83-2.52c.55-.73,1.33-1.3,2.33-1.72,1.01-.42,2.17-.62,3.5-.62,2.04,0,3.68.49,4.94,1.45,1.25.97,1.94,2.33,2.07,4.05h6.13c-.06-2.2-.63-4.12-1.72-5.76-1.08-1.64-2.59-2.92-4.52-3.81-1.93-.89-4.2-1.35-6.82-1.35s-4.86.45-6.84,1.33c-1.98.88-3.53,2.12-4.64,3.72-1.12,1.6-1.68,3.45-1.68,5.57,0,2.53.85,4.59,2.54,6.18,1.69,1.59,4.2,2.77,7.52,3.56l3.95.96c1.45.34,2.68.73,3.64,1.18.97.45,1.7.98,2.19,1.6.49.62.74,1.37.74,2.25,0,1.05-.31,1.96-.93,2.73-.62.78-1.47,1.38-2.57,1.81-1.09.42-2.37.64-3.83.64s-2.86-.25-4.01-.74c-1.16-.49-2.06-1.21-2.72-2.14-.66-.93-1.01-2.09-1.05-3.45h-6.28c.05,2.47.64,4.58,1.78,6.34,1.13,1.76,2.75,3.1,4.83,4.04,2.09.93,4.57,1.39,7.46,1.39s5.28-.45,7.33-1.34c2.05-.9,3.62-2.16,4.71-3.78,1.1-1.62,1.65-3.52,1.65-5.68,0-1.42-.25-2.68-.75-3.77-.5-1.09-1.21-2.05-2.15-2.87Z" fill="#fff"/><rect x="535.61" y="217.49" width="6.4" height="35.85" fill="#fff"/><path d="M684.54,244.16c-.53.86-1.17,1.59-1.93,2.18-.76.59-1.62,1.04-2.59,1.34-.96.31-2,.46-3.1.46-2.09,0-3.9-.51-5.45-1.53-1.55-1.01-2.75-2.47-3.6-4.36-.86-1.89-1.28-4.16-1.28-6.81s.42-4.92,1.28-6.82c.85-1.9,2.05-3.36,3.6-4.39,1.55-1.03,3.36-1.54,5.45-1.54,1.1,0,2.14.15,3.12.46.97.3,1.84.76,2.6,1.35.76.59,1.41,1.32,1.93,2.17.52.86.89,1.85,1.12,2.95h6.45c-.29-1.96-.87-3.72-1.74-5.28-.88-1.56-1.99-2.89-3.33-4-1.35-1.09-2.89-1.93-4.63-2.51-1.73-.58-3.59-.87-5.58-.87-3.23,0-6.09.75-8.61,2.24-2.51,1.49-4.48,3.63-5.91,6.39-1.44,2.76-2.16,6.05-2.16,9.85s.72,7.06,2.16,9.81c1.43,2.76,3.4,4.89,5.91,6.38,2.52,1.49,5.38,2.24,8.61,2.24,2.05,0,3.96-.3,5.71-.93,1.74-.62,3.28-1.49,4.63-2.62,1.34-1.13,2.44-2.47,3.28-4,.85-1.54,1.41-3.24,1.69-5.08h-6.47c-.22,1.09-.6,2.07-1.13,2.92Z" fill="#fff"/><polygon points="712.41 222.95 723.53 222.95 723.53 253.34 729.93 253.34 729.93 222.95 741.02 222.95 741.02 217.49 712.41 217.49 712.41 222.95" fill="#fff"/><polygon points="621.02 237.87 637.49 237.87 637.49 232.5 621.02 232.5 621.02 222.95 638.82 222.95 638.82 217.49 614.62 217.49 614.62 253.34 638.87 253.34 638.87 247.87 621.02 247.87 621.02 237.87" fill="#fff"/><polygon points="564 222.95 575.13 222.95 575.13 253.34 581.52 253.34 581.52 222.95 592.62 222.95 592.62 217.49 564 217.49 564 222.95" fill="#fff"/><path d="M139.85,168.05H58.84c-4.78,0-9.35-1.91-12.73-5.28l-11.14-11.14c-3.37-3.37-5.27-7.95-5.28-12.73V50.55H0v98.8c0,3.16.62,6.29,1.82,9.21,1.21,2.92,2.98,5.57,5.22,7.81l24.42,24.37c4.5,4.51,10.6,7.04,16.96,7.04h79.27c3.81,0,7.53,1.22,10.61,3.46l31.4,22.81,17.6-24.27-40.39-29.4c-2.05-1.5-4.52-2.32-7.06-2.32Z" fill="#fff"/><path d="M180.31,31.42l-24.46-24.37C151.35,2.54,145.25,0,138.88,0H43.61v29.73h84.85c4.77,0,9.35,1.9,12.73,5.28l11.13,11.13c3.37,3.38,5.27,7.96,5.28,12.73v88.35h29.7V48.43c0-3.16-.61-6.28-1.81-9.21-1.21-2.92-2.96-5.57-5.19-7.81Z" fill="#fff"/></g></svg>