<?xml version="1.0" encoding="utf-8"?>
<!-- Generator: Adobe Illustrator 26.3.1, SVG Export Plug-In . SVG Version: 6.00 Build 0)  -->
<svg version="1.1" id="Layer_1" xmlns="http://www.w3.org/2000/svg" xmlns:xlink="http://www.w3.org/1999/xlink" x="0px" y="0px"
	 viewBox="0 0 187.3 224" enable-background="new 0 0 187.3 224" xml:space="preserve">
<g>
	<path fill="#FFFFFF" d="M187.3,199.8L169.7,224l-31.4-22.8c-3.1-2.2-6.8-3.5-10.6-3.5H48.4c-6.4,0-12.5-2.5-17-7L7,166.4
		c-4.5-4.5-7-10.6-7-17V50.6h29.7v88.3c0,4.8,1.9,9.4,5.3,12.8l11.1,11.1c3.4,3.4,8,5.3,12.8,5.3h81c2.5,0,5,0.8,7.1,2.3
		L187.3,199.8z"/>
	<path fill="#FFFFFF" d="M187.3,48.4v98.8h-29.7V58.9c0-4.8-1.9-9.4-5.3-12.8L141.2,35c-3.4-3.4-8-5.3-12.8-5.3H43.7V0h95.2
		c6.4,0,12.5,2.5,17,7l24.4,24.4C184.8,35.9,187.3,42,187.3,48.4z"/>
</g>
</svg>
